<svg xmlns:mydata="http://www.w3.org/2000/svg" mydata:contrastcolor="11111f" mydata:template="Contrast" mydata:presentation="2.5" mydata:layouttype="undefined" mydata:specialfontid="undefined" mydata:id1="224" mydata:id2="023" mydata:companyname="audit" mydata:companytagline="Everyhing" version="1.1" xmlns="http://www.w3.org/2000/svg" xmlns:xlink="http://www.w3.org/1999/xlink" viewBox="0 35 550 400"><g fill="#5bc2e7" fill-rule="none" stroke="none" stroke-width="1" stroke-linecap="butt" stroke-linejoin="miter" stroke-miterlimit="10" stroke-dasharray="" stroke-dashoffset="0" font-family="none" font-weight="none" font-size="none" text-anchor="none" style="mix-blend-mode: normal"><g data-paper-data="{&quot;isGlobalGroup&quot;:true,&quot;bounds&quot;:{&quot;x&quot;:162.02467665674064,&quot;y&quot;:114.99999999999999,&quot;width&quot;:225.9506466865187,&quot;height&quot;:240}}"><g data-paper-data="{&quot;isSecondaryText&quot;:true}" fill-rule="nonzero"><path d="M164.97272,354.8033h-1.59074l5.16563,-12.45224h1.58219l5.17418,12.45224h-1.6335l-1.39404,-3.39529h-5.96955zM166.77727,350.14226h4.99458l-2.00125,-5.17418c-0.04561,-0.10833 -0.09408,-0.23519 -0.14539,-0.38058c-0.05131,-0.14539 -0.09978,-0.28365 -0.14539,-0.41479c-0.05702,-0.15394 -0.11118,-0.31074 -0.16249,-0.47038c-0.05702,0.18245 -0.11403,0.35635 -0.17105,0.52169c-0.04561,0.14254 -0.0955,0.28365 -0.14967,0.42334c-0.05416,0.13969 -0.0955,0.24944 -0.12401,0.32927z" data-paper-data="{&quot;glyphName&quot;:&quot;A&quot;,&quot;glyphIndex&quot;:0,&quot;firstGlyphOfWord&quot;:true,&quot;word&quot;:1}"></path><path d="M180.50952,342.35105h1.47101v7.78265c0,1.16312 0.28793,2.05399 0.86379,2.67261c0.57586,0.61862 1.42825,0.92793 2.55716,0.92793c0.51884,0 0.99065,-0.08125 1.41542,-0.24374c0.42477,-0.16249 0.78682,-0.39626 1.08615,-0.70129c0.29933,-0.30503 0.53025,-0.67706 0.69274,-1.11608c0.16249,-0.43902 0.24374,-0.93221 0.24374,-1.47956v-7.84252h1.47101l-0.00855,7.73989c-0.0057,0.76971 -0.11261,1.4596 -0.32071,2.06967c-0.20811,0.61007 -0.51884,1.12464 -0.93221,1.5437c-0.41336,0.41907 -0.92936,0.73978 -1.54798,0.96214c-0.61862,0.22236 -1.33845,0.33354 -2.15947,0.33354c-0.88945,0 -1.64205,-0.11688 -2.25782,-0.35065c-0.61577,-0.23376 -1.11466,-0.56303 -1.49666,-0.9878c-0.38201,-0.42477 -0.65711,-0.93363 -0.8253,-1.5266c-0.1682,-0.59296 -0.25229,-1.24579 -0.25229,-1.95849z" data-paper-data="{&quot;glyphName&quot;:&quot;U&quot;,&quot;glyphIndex&quot;:1,&quot;word&quot;:1}"></path><path d="M197.27786,342.35105h2.694c0.74121,0 1.45105,0.04276 2.12954,0.12829c0.67849,0.08552 1.30994,0.22521 1.89435,0.41907c0.58441,0.19385 1.11466,0.449 1.59074,0.76544c0.47608,0.31644 0.88232,0.707 1.21871,1.17167c0.33639,0.46468 0.59581,1.00918 0.77827,1.6335c0.18245,0.62432 0.27368,1.33845 0.27368,2.14237c0,0.94646 -0.15822,1.80027 -0.47466,2.56143c-0.31644,0.76116 -0.77541,1.41114 -1.37693,1.94994c-0.60152,0.5388 -1.33702,0.95359 -2.20651,1.24437c-0.86949,0.29078 -1.85444,0.43617 -2.95484,0.43617h-3.56634zM198.74886,353.53755h2.23217c0.90655,0 1.69337,-0.12116 2.36045,-0.36348c0.66708,-0.24232 1.22014,-0.58014 1.65916,-1.01346c0.43902,-0.43332 0.76544,-0.95074 0.97925,-1.55225c0.21381,-0.60152 0.32071,-1.25862 0.32071,-1.97132c0,-0.93506 -0.13114,-1.7233 -0.39341,-2.36473c-0.26227,-0.64143 -0.65141,-1.15885 -1.1674,-1.55225c-0.51599,-0.39341 -1.15742,-0.67564 -1.92428,-0.84668c-0.76686,-0.17105 -1.65488,-0.25657 -2.66406,-0.25657h-1.40259z" data-paper-data="{&quot;glyphName&quot;:&quot;D&quot;,&quot;glyphIndex&quot;:2,&quot;word&quot;:1}"></path><path d="M215.76522,354.8033h-1.47101v-12.45224h1.47101z" data-paper-data="{&quot;glyphName&quot;:&quot;I&quot;,&quot;glyphIndex&quot;:3,&quot;word&quot;:1}"></path><path d="M225.48641,354.8033v-11.18649h-4.01106v-1.26575h9.51878v1.26575h-4.03672v11.18649z" data-paper-data="{&quot;glyphName&quot;:&quot;T&quot;,&quot;glyphIndex&quot;:4,&quot;lastGlyphOfWord&quot;:true,&quot;word&quot;:1}"></path><path d="M253.08774,354.8033h-7.67147v-12.45224h7.4149v1.26575h-5.94389v4.17355h5.6189v1.26575h-5.6189v4.48144h6.20047z" data-paper-data="{&quot;glyphName&quot;:&quot;E&quot;,&quot;glyphIndex&quot;:5,&quot;firstGlyphOfWord&quot;:true,&quot;word&quot;:2}"></path><path d="M259.44785,342.35105l3.61765,9.82667l0.39341,1.20588l0.41051,-1.21444l3.65186,-9.81812h1.53087l-4.83209,12.45224h-1.6164l-4.79788,-12.45224z" data-paper-data="{&quot;glyphName&quot;:&quot;V&quot;,&quot;glyphIndex&quot;:6,&quot;word&quot;:2}"></path><path d="M282.22851,354.8033h-7.67147v-12.45224h7.4149v1.26575h-5.94389v4.17355h5.6189v1.26575h-5.6189v4.48144h6.20047z" data-paper-data="{&quot;glyphName&quot;:&quot;E&quot;,&quot;glyphIndex&quot;:7,&quot;word&quot;:2}"></path><path d="M290.09383,349.22715v5.57614h-1.47101v-12.45224h3.04464c0.33639,0 0.70557,0.0057 1.10753,0.0171c0.40196,0.0114 0.80535,0.04846 1.21016,0.11118c0.40481,0.06272 0.79537,0.16107 1.17167,0.29506c0.3763,0.13399 0.71127,0.32071 1.0049,0.56018c0.29363,0.23947 0.5274,0.54593 0.70129,0.91938c0.1739,0.37345 0.26085,0.82815 0.26085,1.3641c0,0.39341 -0.06272,0.75546 -0.18815,1.08615c-0.12543,0.33069 -0.30503,0.62717 -0.5388,0.88945c-0.23376,0.26227 -0.51457,0.48463 -0.84241,0.66708c-0.32784,0.18245 -0.69132,0.32499 -1.09043,0.42762h0.00855c0.3478,0.11403 0.6343,0.28223 0.85951,0.50459c0.22521,0.22236 0.42904,0.50887 0.61149,0.85951c0.18245,0.35065 0.36205,0.76686 0.5388,1.24865c0.17675,0.48178 0.39341,1.03911 0.64998,1.67199l0.74406,1.83021h-1.60784l-1.30851,-3.58344c-0.14254,-0.38771 -0.28365,-0.70985 -0.42334,-0.96642c-0.13969,-0.25657 -0.30503,-0.4604 -0.49604,-0.61149c-0.191,-0.15109 -0.41622,-0.258 -0.67564,-0.32071c-0.25942,-0.06272 -0.58014,-0.09408 -0.96214,-0.09408zM290.09383,347.96996h2.27493c0.38201,0 0.76401,-0.03421 1.14602,-0.10263c0.38201,-0.06842 0.72553,-0.1853 1.03056,-0.35065c0.30503,-0.16535 0.55163,-0.39056 0.73978,-0.67564c0.18815,-0.28508 0.28223,-0.64713 0.28223,-1.08615c0,-0.42762 -0.0784,-0.77969 -0.23519,-1.05622c-0.15679,-0.27653 -0.37488,-0.49461 -0.65426,-0.65426c-0.27938,-0.15964 -0.60722,-0.27082 -0.98352,-0.33354c-0.3763,-0.06272 -0.78682,-0.09408 -1.23154,-0.09408h-2.36901z" data-paper-data="{&quot;glyphName&quot;:&quot;R&quot;,&quot;glyphIndex&quot;:8,&quot;word&quot;:2}"></path><path d="M306.6056,354.8033v-4.97748l-4.55841,-7.47477h1.6335l3.68607,6.23467l3.72028,-6.23467h1.6335l-4.64393,7.44911v5.00313z" data-paper-data="{&quot;glyphName&quot;:&quot;Y&quot;,&quot;glyphIndex&quot;:9,&quot;word&quot;:2}"></path><path d="M319.63655,354.8033h-1.47101v-12.45224h1.47101v5.4222h6.859v-5.4222h1.46245v12.45224h-1.46245v-5.76429h-6.859z" data-paper-data="{&quot;glyphName&quot;:&quot;H&quot;,&quot;glyphIndex&quot;:10,&quot;word&quot;:2}"></path><path d="M336.65291,354.8033h-1.47101v-12.45224h1.47101z" data-paper-data="{&quot;glyphName&quot;:&quot;I&quot;,&quot;glyphIndex&quot;:11,&quot;word&quot;:2}"></path><path d="M343.73997,354.8033v-12.45224h1.76179l6.38862,9.52734l0.66708,1.08615v-1.9927v-8.62078h1.46245v12.45224h-1.77889l-6.41427,-9.51878l-0.61577,-1.06049v1.62495v8.95433z" data-paper-data="{&quot;glyphName&quot;:&quot;N&quot;,&quot;glyphIndex&quot;:12,&quot;word&quot;:2}"></path><path d="M370.12972,344.57467c-0.21096,-0.20526 -0.44615,-0.38201 -0.70557,-0.53025c-0.25942,-0.14824 -0.53595,-0.27082 -0.82958,-0.36775c-0.29363,-0.09693 -0.60152,-0.1682 -0.92366,-0.21381c-0.32214,-0.04561 -0.64855,-0.06842 -0.97925,-0.06842c-0.79252,0 -1.48954,0.14824 -2.09105,0.44472c-0.60152,0.29648 -1.10326,0.69132 -1.50522,1.1845c-0.40196,0.49319 -0.70414,1.05764 -0.90655,1.69337c-0.20241,0.63573 -0.30361,1.29568 -0.30361,1.97987c0,0.74691 0.09978,1.42967 0.29933,2.04829c0.19956,0.61862 0.50174,1.14887 0.90655,1.59074c0.40481,0.44187 0.91083,0.78539 1.51804,1.03056c0.60722,0.24517 1.32134,0.36775 2.14237,0.36775c0.48463,0 0.95501,-0.03991 1.41114,-0.11973c0.45613,-0.07982 0.88945,-0.20241 1.29996,-0.36775v-3.64331h-3.0874v-1.2743h4.55841v5.7814c-0.68989,0.32499 -1.39546,0.55448 -2.11671,0.68847c-0.72125,0.13399 -1.44963,0.20098 -2.18513,0.20098c-1.02628,0 -1.92998,-0.14824 -2.7111,-0.44472c-0.78112,-0.29648 -1.43537,-0.71555 -1.96277,-1.2572c-0.5274,-0.54165 -0.92508,-1.19306 -1.19306,-1.95422c-0.26797,-0.76116 -0.40196,-1.60642 -0.40196,-2.53578c0,-0.61007 0.06414,-1.19876 0.19243,-1.76606c0.12829,-0.56731 0.31644,-1.09898 0.56446,-1.59502c0.24802,-0.49604 0.55448,-0.94789 0.91938,-1.35555c0.3649,-0.40766 0.78254,-0.75831 1.25292,-1.05194c0.47038,-0.29363 0.99207,-0.52027 1.56508,-0.67991c0.57301,-0.15964 1.19591,-0.23947 1.86869,-0.23947c0.41051,0 0.80962,0.03136 1.19733,0.09408c0.38771,0.06272 0.75261,0.15822 1.0947,0.2865c0.34209,0.12829 0.65711,0.29078 0.94504,0.48748c0.28793,0.1967 0.54022,0.42619 0.75688,0.68847z" data-paper-data="{&quot;glyphName&quot;:&quot;G&quot;,&quot;glyphIndex&quot;:13,&quot;lastGlyphOfWord&quot;:true,&quot;word&quot;:2}"></path></g><g data-paper-data="{&quot;isPrimaryText&quot;:true}" fill-rule="nonzero"><path d="M201.11032,331.30046h8.47845l-18.65259,-58.41651h-10.17414l-18.73737,58.41651h8.13931l4.40879,-14.66772h22.12875zM176.52282,310.10434l9.15672,-30.52241l9.07194,30.52241z" data-paper-data="{&quot;glyphName&quot;:&quot;A&quot;,&quot;glyphIndex&quot;:0,&quot;firstGlyphOfWord&quot;:true,&quot;word&quot;:1}"></path><path d="M257.74636,272.88395h-8.13931v39.08565c0,9.07194 -3.98487,13.56552 -12.37853,13.56552c-8.30888,0 -12.29375,-4.49358 -12.29375,-13.56552v-39.08565h-8.05453v39.67914c0,11.61547 7.03711,19.75478 20.34828,19.75478c13.14159,0 20.51784,-8.13931 20.51784,-19.75478z" data-paper-data="{&quot;glyphName&quot;:&quot;U&quot;,&quot;glyphIndex&quot;:1,&quot;word&quot;:1}"></path><path d="M286.06438,272.88395h-12.20897v58.41651h13.98944c12.63289,0 27.47017,-5.68056 27.47017,-29.505c0,-24.24836 -14.32858,-28.91151 -29.25065,-28.91151zM287.84485,279.32757c9.32629,0 18.90694,2.7131 18.90694,22.46789c0,19.24608 -9.15672,23.14616 -18.31345,23.14616h-6.52841v-45.61405z" data-paper-data="{&quot;glyphName&quot;:&quot;D&quot;,&quot;glyphIndex&quot;:2,&quot;word&quot;:1}"></path><path d="M336.51114,272.88395h-8.05453v58.41651h8.05453z" data-paper-data="{&quot;glyphName&quot;:&quot;I&quot;,&quot;glyphIndex&quot;:3,&quot;word&quot;:1}"></path><path d="M387.97532,272.88395h-41.71397v6.86754h16.61776v51.54897h8.05453v-51.54897h16.19384z" data-paper-data="{&quot;glyphName&quot;:&quot;T&quot;,&quot;glyphIndex&quot;:4,&quot;lastGlyphOfWord&quot;:true,&quot;word&quot;:1}"></path></g><g data-paper-data="{&quot;fillRule&quot;:&quot;evenodd&quot;,&quot;fillRuleOriginal&quot;:&quot;evenodd&quot;,&quot;isIcon&quot;:true,&quot;iconStyle&quot;:&quot;standalone&quot;,&quot;selectedEffects&quot;:{&quot;container&quot;:&quot;&quot;,&quot;transformation&quot;:&quot;&quot;,&quot;pattern&quot;:&quot;&quot;},&quot;bounds&quot;:{&quot;x&quot;:218.70195951773346,&quot;y&quot;:114.99999999999999,&quot;width&quot;:112.59608096453312,&quot;height&quot;:129.53814129597998},&quot;iconType&quot;:&quot;icon&quot;,&quot;rawIconId&quot;:&quot;167004&quot;,&quot;isDetailed&quot;:false,&quot;suitableAsStandaloneIcon&quot;:true}" fill-rule="evenodd"><path d="M218.70196,146.62255v63.25424l54.77787,-31.6256v-63.25119zM276.5156,115v63.25119l54.78244,31.6256v-63.25424zM279.56355,120.27906l48.68653,28.10368v56.21498l-48.68653,-28.10673zM275.00381,181.28695l-54.78092,31.6256l54.78092,31.6256l54.77634,-31.63169zM275.00381,184.80886l48.68043,28.09911l-48.68043,28.10825l-48.68501,-28.10368z" data-paper-data="{&quot;isPathIcon&quot;:true}"></path></g></g></g><g class="watermark-group" style="opacity:0.040000010281801224"><path class="watermark-path" d="M129.52,370.3a11.88,11.88,0,0,1,2.58,5.58,12,12,0,0,1,.11,3,11.81,11.81,0,0,1-.64,2.93,12.34,12.34,0,0,1-1.41,2.72,11.65,11.65,0,0,1-2.13,2.32,12,12,0,0,1-2.64,1.69,13,13,0,0,1-2.91.9,12.47,12.47,0,0,1-3,.12,12.17,12.17,0,0,1-2.93-.64,11.8,11.8,0,0,1-2.72-1.38,12.19,12.19,0,0,1-4-4.79,11.85,11.85,0,0,1-.89-2.92,12.14,12.14,0,0,1-.13-3,11.54,11.54,0,0,1,.64-2.92,11.67,11.67,0,0,1,3.5-5,11.44,11.44,0,0,1,2.67-1.69,11.64,11.64,0,0,1,2.92-.91,10.71,10.71,0,0,1,3-.12,11.68,11.68,0,0,1,5.66,2,11.7,11.7,0,0,1,2.34,2.12m-1.4,8.76a13,13,0,0,1-1.22,2.32,9.68,9.68,0,0,1-1.81,2,7.44,7.44,0,0,1-2.38,1.37,6.17,6.17,0,0,1-5.11-.46,8.73,8.73,0,0,1-3.85-4.58,6.69,6.69,0,0,1-.34-2.66,6.09,6.09,0,0,1,.77-2.47,7.15,7.15,0,0,1,1.75-2.11,9.58,9.58,0,0,1,1.09-.81,8.23,8.23,0,0,1,1.12-.63,8.14,8.14,0,0,1,1.19-.46,12.71,12.71,0,0,1,1.32-.37l2,2.38a12.83,12.83,0,0,0-1.56.17,7.86,7.86,0,0,0-1.23.32,4.5,4.5,0,0,0-1,.49,6.41,6.41,0,0,0-.93.67,4.49,4.49,0,0,0-1.15,1.39,3.87,3.87,0,0,0-.45,1.58,4.12,4.12,0,0,0,.26,1.63,6.11,6.11,0,0,0,2.36,2.82,4.43,4.43,0,0,0,1.57.53,3.91,3.91,0,0,0,1.62-.17,4.71,4.71,0,0,0,1.57-.89,10.5,10.5,0,0,0,.83-.79,5.71,5.71,0,0,0,.65-.93,10.13,10.13,0,0,0,.54-1.14,12.24,12.24,0,0,0,.44-1.49l2,2.33m-14.46,4.55a8.86,8.86,0,0,0,2.78,2.22,9,9,0,0,0,3.29.94,9.15,9.15,0,0,0,3.39-.37,8.68,8.68,0,0,0,3.11-1.69,8.8,8.8,0,0,0,2.22-2.78,9.15,9.15,0,0,0,1-3.29,8.95,8.95,0,0,0-4.83-8.76,9,9,0,0,0-6.73-.57,9,9,0,0,0-5.33,4.47,8.94,8.94,0,0,0-.57,6.71,8.76,8.76,0,0,0,1.7,3.12"></path><path class="watermark-path" d="M147,349c-.48.12-1.09.31-1.82.57a24.37,24.37,0,0,0-2.4,1A28.35,28.35,0,0,0,140,352a20.72,20.72,0,0,0-2.71,1.94c-.7.59-1.28,1.11-1.74,1.57a15.07,15.07,0,0,0-1.1,1.22,4.09,4.09,0,0,0-.59.92,2.32,2.32,0,0,0-.22.64,1.16,1.16,0,0,0,0,.47,1.83,1.83,0,0,0,.18.29,1.15,1.15,0,0,0,1,.37,5.54,5.54,0,0,0,1.51-.38q.87-.35,1.95-.9l2.26-1.18q1.2-.65,2.49-1.29c.87-.44,1.73-.83,2.59-1.17a18.94,18.94,0,0,1,2.6-.81,9.27,9.27,0,0,1,2.46-.29,6.25,6.25,0,0,1,2.24.49,5.12,5.12,0,0,1,1.89,1.47,6.35,6.35,0,0,1,1.41,2.61,6,6,0,0,1,.09,2.6,8.3,8.3,0,0,1-.9,2.52,17.79,17.79,0,0,1-1.62,2.37,23.92,23.92,0,0,1-2,2.15c-.72.67-1.41,1.29-2.09,1.87a33.79,33.79,0,0,1-5.33,3.7,32.29,32.29,0,0,1-4.91,2.28l-3.61-4.3a21.38,21.38,0,0,0,5.39-1.87,27.2,27.2,0,0,0,5.4-3.56,21.59,21.59,0,0,0,2.38-2.27,8.67,8.67,0,0,0,1.18-1.7,2.32,2.32,0,0,0,.27-1.19,1.34,1.34,0,0,0-.28-.74,1.21,1.21,0,0,0-1-.42,4.32,4.32,0,0,0-1.55.34,15.77,15.77,0,0,0-2,.88c-.72.37-1.48.77-2.27,1.21l-2.45,1.3c-.85.45-1.7.85-2.56,1.21a22.37,22.37,0,0,1-2.54.86,10,10,0,0,1-2.43.32,5.76,5.76,0,0,1-2.2-.45,5,5,0,0,1-1.89-1.45,6.12,6.12,0,0,1-1.31-2.41,6,6,0,0,1-.1-2.41,8.28,8.28,0,0,1,.81-2.38,14.06,14.06,0,0,1,1.49-2.24,22.37,22.37,0,0,1,1.85-2.05q1-1,2-1.77c.7-.59,1.44-1.15,2.23-1.7s1.62-1.06,2.44-1.53,1.63-.91,2.43-1.3,1.58-.75,2.3-1L147,349"></path><path class="watermark-path" d="M186.76,337.57l-10.6-12.63,3.92,18.24-4.66,3.91-17.27-7,10.6,12.63-4.86,4.07-15.09-18,6.59-5.54,18.69,7.52-4.15-19.71,6.57-5.52,15.09,18-4.83,4.05"></path><path class="watermark-path" d="M208.84,313.24l-10,8.42,1.16,4.82L194.56,331l-5.68-25.89,5.42-4.55,24.51,10.09-5.42,4.55-4.55-2m-11.23,3.45,6.57-5.52-8.83-3.87,2.26,9.39"></path><path class="watermark-path" d="M227.49,281.38c-.48.12-1.09.31-1.82.57a24.37,24.37,0,0,0-2.4,1,26.11,26.11,0,0,0-2.7,1.47,20.72,20.72,0,0,0-2.71,1.94c-.7.59-1.28,1.11-1.74,1.57a13.39,13.39,0,0,0-1.1,1.22,4.29,4.29,0,0,0-.59.91,2.48,2.48,0,0,0-.22.65,1.16,1.16,0,0,0,0,.47,1.83,1.83,0,0,0,.18.29,1.15,1.15,0,0,0,1,.37,5.54,5.54,0,0,0,1.51-.38q.87-.34,2-.9l2.26-1.18q1.2-.64,2.49-1.29c.87-.44,1.73-.83,2.59-1.17a18.94,18.94,0,0,1,2.6-.81,9.27,9.27,0,0,1,2.46-.29,6.08,6.08,0,0,1,2.24.49,5.09,5.09,0,0,1,1.89,1.46,6.47,6.47,0,0,1,1.41,2.61,6.07,6.07,0,0,1,.09,2.61,8.3,8.3,0,0,1-.9,2.52,16.32,16.32,0,0,1-1.63,2.36,21.41,21.41,0,0,1-2,2.16c-.72.67-1.41,1.29-2.1,1.86a33.36,33.36,0,0,1-5.32,3.71,31.92,31.92,0,0,1-4.92,2.28l-3.6-4.3a21.38,21.38,0,0,0,5.39-1.87,27.2,27.2,0,0,0,5.4-3.56,21.59,21.59,0,0,0,2.38-2.27,8.67,8.67,0,0,0,1.18-1.7A2.32,2.32,0,0,0,231,293a1.34,1.34,0,0,0-.28-.74,1.21,1.21,0,0,0-1-.42,4.32,4.32,0,0,0-1.55.34,16.54,16.54,0,0,0-2,.88c-.71.37-1.47.77-2.26,1.21l-2.46,1.3c-.84.44-1.7.85-2.55,1.21a24.53,24.53,0,0,1-2.54.86A10,10,0,0,1,214,298a5.76,5.76,0,0,1-2.2-.45,5,5,0,0,1-1.89-1.45,6.12,6.12,0,0,1-1.31-2.41,5.78,5.78,0,0,1-.1-2.41,8,8,0,0,1,.81-2.38,14.61,14.61,0,0,1,1.49-2.25,22.26,22.26,0,0,1,1.85-2q1-1,2-1.77c.7-.59,1.44-1.15,2.23-1.7s1.62-1.06,2.44-1.53,1.63-.91,2.43-1.31,1.58-.74,2.3-1l3.5,4.16"></path><path class="watermark-path" d="M261.64,274.74l-6.29-7.5L243,277.61l6.3,7.5-4.86,4.07-15.09-18,4.85-4.08,5.49,6.55L252,263.3l-5.49-6.55,4.86-4.07,15.09,18-4.86,4.08"></path><path class="watermark-path" d="M272.18,265.9l-15.09-18,4.86-4.08,15.09,18-4.86,4.08"></path><path class="watermark-path" d="M299.65,242.85l-22.51-2.18L287.51,253l-4.85,4.08-15.1-18,5.28-4.43,22.56,2.22L285,224.5l4.83-4.06,15.09,18-5.26,4.42"></path><path class="watermark-path" d="M306.68,205.52a31.88,31.88,0,0,1,5.29-3.66,34.48,34.48,0,0,1,5.14-2.35l3.69,4.39a20.77,20.77,0,0,0-2.37.61,20.47,20.47,0,0,0-2.61,1,25.12,25.12,0,0,0-2.76,1.49,23.9,23.9,0,0,0-2.8,2,20.42,20.42,0,0,0-2.8,2.77,12.77,12.77,0,0,0-1.64,2.52,7,7,0,0,0-.68,2.24,6,6,0,0,0,.66,3.64,8.16,8.16,0,0,0,.94,1.38,9.12,9.12,0,0,0,1.08,1.07,6.39,6.39,0,0,0,1.47.91,6.73,6.73,0,0,0,1.88.48,6.54,6.54,0,0,0,2.28-.18,11.67,11.67,0,0,0,2.74-1.07,19.38,19.38,0,0,0,3.18-2.22c.57-.48,1.06-.92,1.46-1.31a14.57,14.57,0,0,0,1-1.13,11.46,11.46,0,0,0,.81-1.05l.74-1.09-1.82-2.17-5.45,4.57-3.31-3.94,10.31-8.65,7.71,9.19a29,29,0,0,1-1.67,2.43q-1,1.26-2.1,2.52c-.74.84-1.5,1.65-2.3,2.44s-1.58,1.5-2.33,2.14a31,31,0,0,1-3.59,2.61,22.55,22.55,0,0,1-3.64,1.83,15.64,15.64,0,0,1-3.63.89,10.72,10.72,0,0,1-3.49-.15,10.45,10.45,0,0,1-3.28-1.33,12.54,12.54,0,0,1-3-2.67,12,12,0,0,1-2.08-3.44,10.45,10.45,0,0,1-.71-3.5,11.14,11.14,0,0,1,.51-3.51,15.72,15.72,0,0,1,1.56-3.43,21.62,21.62,0,0,1,2.42-3.28,30.3,30.3,0,0,1,3.15-3"></path><path class="watermark-path" d="M336.91,211.59l-15.1-18,4.86-4.08,11.79,14,13.13-11,3.31,3.94-18,15.1"></path><path class="watermark-path" d="M374.54,164.71a12.28,12.28,0,0,1,2.59,4.81,10.44,10.44,0,0,1,0,5,14.62,14.62,0,0,1-2.33,5,25.55,25.55,0,0,1-4.56,4.85,26.07,26.07,0,0,1-5.6,3.67,14.79,14.79,0,0,1-5.38,1.43,10.43,10.43,0,0,1-4.94-.89,13.24,13.24,0,0,1-6.87-8.18,10.48,10.48,0,0,1,0-5,14.51,14.51,0,0,1,2.36-5,25.23,25.23,0,0,1,4.57-4.89,25,25,0,0,1,5.59-3.64,14.45,14.45,0,0,1,5.35-1.43,10.31,10.31,0,0,1,4.93.92,12.22,12.22,0,0,1,4.28,3.38m-4.91,4.11a8.36,8.36,0,0,0-2-1.72,5.5,5.5,0,0,0-2.65-.85,7.72,7.72,0,0,0-3.32.57,14.49,14.49,0,0,0-4,2.52,16.72,16.72,0,0,0-2.38,2.4,10.15,10.15,0,0,0-1.39,2.24,6.71,6.71,0,0,0-.56,2.1,5.69,5.69,0,0,0,.1,1.9,6.21,6.21,0,0,0,.61,1.69,9.85,9.85,0,0,0,1,1.44,10.48,10.48,0,0,0,1.26,1.23,6.67,6.67,0,0,0,1.57.92,6.1,6.1,0,0,0,1.85.41,6.8,6.8,0,0,0,2.15-.2,11.06,11.06,0,0,0,2.45-1,17.67,17.67,0,0,0,2.77-1.94,14.39,14.39,0,0,0,3.18-3.52,7.74,7.74,0,0,0,1.14-3.17,5.54,5.54,0,0,0-.37-2.74,8.52,8.52,0,0,0-1.36-2.3"></path><path class="watermark-path" d="M382.66,141.76A32.3,32.3,0,0,1,388,138.1a34.12,34.12,0,0,1,5.15-2.35l3.69,4.4a19.62,19.62,0,0,0-2.37.6,22.08,22.08,0,0,0-2.61,1,26,26,0,0,0-2.77,1.49,23.9,23.9,0,0,0-2.8,2,21,21,0,0,0-2.8,2.78,13.19,13.19,0,0,0-1.64,2.51,7.29,7.29,0,0,0-.68,2.24,6.36,6.36,0,0,0,.06,2,5.8,5.8,0,0,0,.61,1.68,8.12,8.12,0,0,0,.93,1.38,9.16,9.16,0,0,0,1.08,1.08,6.56,6.56,0,0,0,1.48.9,6,6,0,0,0,1.87.48,6.76,6.76,0,0,0,2.28-.17,12,12,0,0,0,2.74-1.08,18.57,18.57,0,0,0,3.18-2.22c.58-.48,1.06-.92,1.46-1.31s.75-.77,1.05-1.12.57-.72.81-1.06l.73-1.09-1.82-2.17-5.45,4.57-3.3-3.94,10.3-8.65,7.71,9.19a29,29,0,0,1-1.67,2.43q-1,1.26-2.1,2.52c-.73.84-1.5,1.66-2.3,2.44s-1.57,1.5-2.33,2.14a31,31,0,0,1-3.59,2.61,22.15,22.15,0,0,1-3.64,1.83,15.56,15.56,0,0,1-3.62.89,11,11,0,0,1-3.49-.14,10.84,10.84,0,0,1-3.28-1.33,12.82,12.82,0,0,1-3-2.68,12.12,12.12,0,0,1-2.08-3.43A10.71,10.71,0,0,1,375,155a11.18,11.18,0,0,1,.51-3.51,15.51,15.51,0,0,1,1.57-3.43,21.44,21.44,0,0,1,2.42-3.28,30.19,30.19,0,0,1,3.14-3"></path><path class="watermark-path" d="M428.63,119.31a12.26,12.26,0,0,1,2.59,4.82,10.44,10.44,0,0,1,0,5,14.53,14.53,0,0,1-2.34,5,25.29,25.29,0,0,1-4.56,4.86,26,26,0,0,1-5.59,3.67,14.84,14.84,0,0,1-5.38,1.43,10.61,10.61,0,0,1-4.95-.89,12.15,12.15,0,0,1-4.3-3.37,12,12,0,0,1-2.56-4.81,10.48,10.48,0,0,1,0-5,14.39,14.39,0,0,1,2.35-5,27.89,27.89,0,0,1,10.16-8.53,14.49,14.49,0,0,1,5.36-1.43,10.27,10.27,0,0,1,4.92.92,12.21,12.21,0,0,1,4.28,3.37m-4.91,4.12a8.17,8.17,0,0,0-2-1.72,5.58,5.58,0,0,0-2.65-.86,7.86,7.86,0,0,0-3.31.58,14.49,14.49,0,0,0-4,2.52,16.21,16.21,0,0,0-2.38,2.4,9.85,9.85,0,0,0-1.4,2.24,7,7,0,0,0-.56,2.1,6,6,0,0,0,.1,1.9,6.23,6.23,0,0,0,.62,1.69,8.49,8.49,0,0,0,1,1.44,9.18,9.18,0,0,0,1.26,1.23,6.67,6.67,0,0,0,1.57.92,6,6,0,0,0,1.84.41,6.86,6.86,0,0,0,2.16-.2,11.26,11.26,0,0,0,2.45-1,17.62,17.62,0,0,0,2.76-1.94,14.67,14.67,0,0,0,3.19-3.52,7.71,7.71,0,0,0,1.13-3.17,5.53,5.53,0,0,0-.36-2.74,8.55,8.55,0,0,0-1.37-2.3"></path></g></svg>